<?xml version="1.0" standalone="no"?><!DOCTYPE svg PUBLIC "-//W3C//DTD SVG 1.1//EN" "http://www.w3.org/Graphics/SVG/1.1/DTD/svg11.dtd"><svg t="1571968173294" class="icon" viewBox="0 0 1096 1024" version="1.1" xmlns="http://www.w3.org/2000/svg" p-id="5267" xmlns:xlink="http://www.w3.org/1999/xlink" width="214.0625" height="200"><defs><style type="text/css"></style></defs><path d="M579.927534 331.871638V80.116112a26.343913 26.343913 0 0 0-52.687825 0v316.169475a26.354544 26.354544 0 0 0 26.343912 26.343912h316.169475a26.354544 26.354544 0 0 0 0-52.698456h-253.339562l325.312237-325.312237a26.343913 26.343913 0 0 0-37.208916-37.208916zM369.154971 618.741749v251.776788a26.349228 26.349228 0 1 0 52.698457 0v-316.169475a26.354544 26.354544 0 0 0-26.343913-26.343913H79.371933a26.349228 26.349228 0 1 0 0 52.698457h253.286407l-325.312237 325.312237a26.343913 26.343913 0 0 0 37.208916 37.208916z m0 0" p-id="5268"></path></svg>